<?xml version="1.0" encoding="utf-8"?>
<!-- Generator: Adobe Illustrator 24.0.0, SVG Export Plug-In . SVG Version: 6.00 Build 0)  -->
<svg version="1.1" id="圖層_1" xmlns="http://www.w3.org/2000/svg" xmlns:xlink="http://www.w3.org/1999/xlink" x="0px" y="0px"
	 viewBox="0 0 64 64" style="enable-background:new 0 0 64 64;" xml:space="preserve">
<path d="M43.34,15.82H20.66c-0.57,0-1.03-0.46-1.03-1.03V5.99c0-0.32,0.15-0.62,0.4-0.82l4.99-3.83c0.18-0.14,0.4-0.21,0.63-0.21
	h12.69c0.23,0,0.46,0.08,0.64,0.22l5,3.98c0.25,0.2,0.39,0.49,0.39,0.81v8.64C44.37,15.36,43.91,15.82,43.34,15.82z"/>
<path d="M43.87,61.72H20.13c-0.28,0-0.5-0.22-0.5-0.5V49.27c0-0.28,0.22-0.5,0.5-0.5h23.74c0.28,0,0.5,0.22,0.5,0.5v11.96
	C44.37,61.5,44.14,61.72,43.87,61.72z"/>
<path d="M45.88,59.19H18.12c-0.28,0-0.5-0.22-0.5-0.5V15.32c0-0.28,0.22-0.5,0.5-0.5h27.77c0.28,0,0.5,0.22,0.5,0.5v43.37
	C46.38,58.96,46.16,59.19,45.88,59.19z"/>
<path d="M18.36,15.8l-3.31,3.31c-0.2,0.2-0.52,0.2-0.71,0l-1.44-1.44c-0.2-0.2-0.2-0.52,0-0.71l3.31-3.31c0.2-0.2,0.52-0.2,0.71,0
	l1.44,1.44C18.55,15.29,18.55,15.6,18.36,15.8z"/>
<path d="M19.39,45.28v10.08c0,0.28-0.23,0.5-0.5,0.5h-2.53c-0.28,0-0.5-0.23-0.5-0.5V45.28c0-0.28,0.23-0.5,0.5-0.5h2.53
	C19.16,44.77,19.39,45,19.39,45.28z"/>
<path d="M20.16,11.34v10.08c0,0.28-0.23,0.5-0.5,0.5h-2.53c-0.28,0-0.5-0.23-0.5-0.5V11.34c0-0.28,0.23-0.5,0.5-0.5h2.53
	C19.93,10.84,20.16,11.07,20.16,11.34z"/>
<path d="M48.15,45.28v10.08c0,0.28-0.23,0.5-0.5,0.5h-2.53c-0.28,0-0.5-0.23-0.5-0.5V45.28c0-0.28,0.23-0.5,0.5-0.5h2.53
	C47.92,44.77,48.15,45,48.15,45.28z"/>
<path d="M47.25,11.85v10.08c0,0.28-0.23,0.5-0.5,0.5h-2.53c-0.28,0-0.5-0.23-0.5-0.5V11.85c0-0.28,0.23-0.5,0.5-0.5h2.53
	C47.02,11.34,47.25,11.57,47.25,11.85z"/>
<path d="M47.42,14.15l3.31,3.31c0.2,0.2,0.2,0.52,0,0.71l-1.44,1.44c-0.2,0.2-0.52,0.2-0.71,0l-3.31-3.31c-0.2-0.2-0.2-0.52,0-0.71
	l1.44-1.44C46.9,13.96,47.22,13.96,47.42,14.15z"/>
</svg>
