<svg id="Capa_1" enable-background="new 0 0 512 512" height="512" viewBox="0 0 512 512" width="512" xmlns="http://www.w3.org/2000/svg"><path d="m70.697 241c7.662-95.52 87.845-170.902 185.303-170.902s177.641 75.382 185.303 170.902h70.248c-7.768-134.401-119.203-241-255.551-241s-247.783 106.599-255.551 241z"/><path d="m411.902 271v-15c0-85.965-69.938-155.902-155.902-155.902s-155.902 69.937-155.902 155.902v15h-99.649c7.768 134.401 119.203 241 255.551 241s247.783-106.599 255.551-241zm-83.607 97.762c0 39.864-32.432 72.296-72.295 72.296-39.864 0-72.295-32.432-72.295-72.296v-100.536c0-39.863 32.431-72.295 72.295-72.295 39.863 0 72.295 32.432 72.295 72.295z"/><path d="m256 225.931c-23.321 0-42.295 18.974-42.295 42.295v100.536c0 23.322 18.974 42.296 42.295 42.296s42.295-18.974 42.295-42.296v-100.536c0-23.322-18.974-42.295-42.295-42.295zm15 76.405h-30v-30h30z"/></svg>